<svg xmlns="http://www.w3.org/2000/svg" style="display: none;">

    <symbol id="icon-shopping-cart" viewBox="0 0 512 512">
      <path d="m441 416c0 14-11 25-25 25c-14 0-25-11-25-25c0-14 11-25 25-25c14 0 25 11 25 25z m-288 0c0 14-11 25-25 25c-14 0-25-11-25-25c0-14 11-25 25-25c14 0 25 11 25 25z m-25-320l320 0l-15 175c0 0-209 30-244 34c-35 4-69 30-74 62l333 0l0 17l-352 0c0 0 0-5 2-17c5-35 33-62 65-73l-57-213l-42 0l0-17l53 0z"/>
    </symbol>

    <symbol id="icon-speakerphone" viewBox="0 0 512 512">
      <path d="m71 182c0 37 20 69 50 86c-1 0-2-1-3-1c-1 0-4-1-5-1c-35-3-62-33-69-69c-6 0-12-7-12-16c0-8 5-15 11-16c6-42 40-75 81-75l8 0c-36 15-61 51-61 92z m394-91c10 25 15 56 15 88c0 32-5 63-15 88l-3 9c-6 14-15 26-24 34c-10 10-22 19-34 20l-3 0c-7 0-15-2-22-5c-3-2-10-5-10-5c-22-10-84-28-115-29c-4 8-10 20-12 30c-2 9-6 27-7 61c-1 32 1 59 3 82c0 2 1 5 1 7c0 6-2 9-9 9l-77 0c-6 0-9-3-9-6l0-7c2-72 25-140 26-145c2-9 5-17 7-30c2-12-27-13-40-24c-29-17-47-49-47-86c0-41 25-77 59-92l61 0c58-3 114-21 163-50c1-1 3-1 4-2c8-4 16-6 24-6c13 0 26 6 37 16c9 9 18 21 24 35c1 3 2 5 3 8z m-23 177c9-22 15-54 15-89c0-35-6-66-15-88c-8-18-19-29-30-29c-11 0-21 11-29 29c-9 22-15 53-15 88c0 35 6 67 15 89c8 19 18 33 29 33c11 0 22-15 30-33z"/>
    </symbol>

    <symbol id="icon-star" viewBox="0 0 512 512">
      <path d="m480 207l-140 98l54 159l-138-99l-138 99l54-159l-140-98l171 0l53-159l53 159z"/>
    </symbol>

    <symbol id="icon-pizza" viewBox="0 0 512 512">
      <path d="m397 131c5 2 8 7 8 13c0 2 0 4-1 6l-148 330l-148-330c-1-2-1-4-1-6c0-6 3-11 8-13c1 0 1 0 2-1c42-18 90-28 139-28c49 0 97 10 139 28c42 0 0 1 1 1z m-150-13c-4 2-5 7-3 11c0 1 5 9 14 15c12 8 27 8 41 0c4-2 5-7 3-11c-2-4-7-5-11-3c-9 5-16 5-23 0c-6-4-10-9-10-9c-2-4-7-5-11-3z m-87 42c0 18 14 32 32 32c18 0 32-14 32-32c0-18-14-32-32-32c-18 0-32 14-32 32z m54 101c1-10 5-16 13-19c6-3 13-3 13-3c4 0 8-3 8-7c0-4-3-9-7-9c-1 0-10 0-20 4c-14 6-22 17-23 33c0 4 3 9 7 9c4 0 9-4 9-8z m54 134c13-7 20-20 20-36c0-4-5-7-9-7c-4 0-7 4-7 8c0 10-4 17-11 21c-6 3-13 3-13 3c-4 0-8 5-8 9c0 4 5 7 9 7c1 0 10 0 19-5z m-12-56c18 0 32-14 32-32c0-18-14-32-32-32c-18 0-32 14-32 32c0 18 14 32 32 32z m64-115c18 0 32-14 32-32c0-18-14-32-32-32c-18 0-32 14-32 32c0 18 14 32 32 32z m104-158c5 2 8 7 8 13c0 2 0 3-1 5l0 1l-7 16l-1 3c-2 5-7 8-13 8c-2 0-4-1-6-2l-1 0c-45-19-95-30-147-30c-52 0-102 11-147 30c-2 1-4 2-6 2c-6 0-12-4-14-9l-1-2l-7-16l0-1c-1-2-1-3-1-5c0-6 3-11 8-13c1 0 1-1 2-1c51-21 107-33 166-33c59 0 115 12 166 33c1 0 1 1 2 1z"/>
    </symbol>

    <symbol id="icon-star-outline" viewBox="0 0 512 512">
      <path d="m480 207l-140 98l54 159l-138-99l-138 99l54-159l-140-98l171 0l53-159l53 159z m-117 214l-43-122l108-75l-131 0l-41-123l-41 123l-131 0l108 75l-43 122l107-76z"/>
    </symbol>

    <symbol id="icon-at-address-thick" viewBox="0 0 512 512">
      <path d="m356 320l28 0c-1 1-2 4-3 6c-4 6-14 19-23 27c-9 8-18 14-28 20c-10 6-20 10-32 13c-11 3-23 5-34 5c-16 0-33-3-49-8c-16-5-30-13-43-24c-12-10-26-28-34-46c-7-16-10-33-10-58c0-19 4-39 11-55c7-16 17-30 29-42c12-12 28-21 44-28c15-6 32-9 52-9c16 0 31 3 46 8c15 5 28 12 39 22c11 10 18 22 25 36c6 14 8 26 8 44c0 14-2 28-7 40c-4 11-9 20-17 30c-7 9-14 16-24 22c-12 6-21 9-30 9c-9 0-16-2-22-8c-2-1-3-3-4-5c-4 4-9 6-14 8c-10 3-18 5-27 5c-8 0-16-2-23-5c-7-3-12-7-17-12c-5-5-9-12-12-19c-3-7-4-14-4-22c0-12 2-25 6-37l1-1c4-10 5-17 13-27c8-11 17-20 28-27c12-7 24-10 38-10c12 0 22 3 33 9c5 3 8 6 12 10l5-12l25 0l-39 104c-2 5-3 9-4 13c-1 3-1 7-1 9c0 2 0 3 1 3c0 0 1 1 5 1c5 0 11-2 19-7c7-4 10-8 16-16c6-8 9-13 13-23c4-10 6-20 6-32c0-14-1-24-6-34c-5-12-10-21-18-28c-9-8-19-14-31-18c-12-4-26-7-40-7c-18 0-32 3-44 8c-14 6-25 13-35 23c-10 10-18 22-24 35c-6 14-9 30-9 45c0 21 3 34 8 46c6 14 16 30 26 39c10 9 22 16 35 21c14 5 28 7 43 7c10 0 20-2 29-4c9-2 18-6 26-11c8-5 28-20 38-33z m-84-29c4-5 7-12 10-19l20-55c-1-4-3-7-5-9c-3-3-6-6-9-8l-2 0l0-1c-3-2-5-2-8-3c-4-1-8-1-12-1c-9 0-17 2-25 7c-10 6-17 14-21 21c-5 8-6 11-9 19c0 1-1 2-1 3c-3 10-6 19-6 28c0 5 1 10 3 14c2 4 4 8 7 11c3 3 7 6 11 8c4 2 8 2 13 2c4 0 8 0 12-1c4-1 7-2 11-5c3-2 7-5 11-11z"/>
    </symbol>

    <symbol id="icon-bag" viewBox="0 0 512 512">
      <path d="m448 160l32 320l-448 0l32-320l64 0l0-4c0-68 56-124 124-124l8 0c68 0 124 56 124 124l0 4z m-288-4l0 4l192 0l0-4c0-51-41-92-92-92l-8 0c-51 0-92 41-92 92z m-92 292l376 0l-25-256l-35 0l0 36c10 6 16 16 16 28c0 18-14 32-32 32c-18 0-32-14-32-32c0-12 6-22 16-28l0-36l-192 0l0 36c10 6 16 16 16 28c0 18-14 32-32 32c-18 0-32-14-32-32c0-12 6-22 16-28l0-36l-35 0z"/>
    </symbol>

    <symbol id="icon-car" viewBox="0 0 512 512">
      <path d="m509 391l0 12c0 3-1 5-1 7c-1 12-2 18-6 20c-3 2-6 2-10 2l-43 0c0 0-10-1-11-16l0-8c20-1 39-1 52 0c10 0 13 0 16-6c2-3 2-7 3-11z m-506 0c1 4 1 8 3 11c3 6 6 6 16 6c13-1 32-1 52 0l0 8c-1 15-8 16-11 16l-43 0c0 0-7 0-10-2c-4-2-6-8-7-20z m509-94c0 31-2 58-2 68c0 4 0 11-1 18c-1 4-1 8-3 11c-3 6-6 6-16 6c-13-1-32-1-52 0c-13 0-27 2-39 2c-30 1-21-4-34-4c-13 0-63 2-109 2c-46 0-97-2-110-2c-13 0-4 5-34 4c-12 0-25-2-38-2c-20-1-39-1-52 0c-10 0-13 0-16-6c-2-3-2-7-3-11c-1-7-1-14-1-18c0-10-2-37-2-68c0-31 4-61 6-64c1-2 8-9 26-21c18-12 17-10 20-18c-3-1-5-3-7-3c-4 0-4 3-12 3c-8 0-24-1-28-5c-4-3-5-5-5-8c0-3 2-9 5-13c3-4 19-6 27-7c8-1 10 0 12 1c4 2 3 22 3 22l9 1c5-13 12-41 24-62c13-23 26-30 32-32c6-2 10-2 48-6c38-4 69-5 96-5c27 0 58 1 96 5c38 4 42 4 48 6c6 2 19 9 32 32c12 21 19 49 24 62l9-1c0 0-1-20 3-22c2-1 4-2 12-1c8 1 24 3 27 7c3 4 5 10 5 13c0 3-1 4-5 8c-4 4-20 5-28 5c-8 0-8-3-12-3c-2 0-4 2-7 3c3 8 2 6 20 18c18 12 25 19 26 21c2 3 6 33 6 64z m-426-152c-5 11-11 33-10 36c1 3-1 5 15 4c16-1 117-3 165-3c48 0 149 2 165 3c16 1 14-1 15-4c1-3-5-25-10-36c-5-11-17-31-26-37c-2-1-17-7-54-9c-34-2-72-3-90-3c-18 0-56 1-90 3c-37 2-52 8-54 9c-7 4-21 26-26 37z m37 125c7-2 11-2 11-2c0 0-17-16-48-25c-31-9-49-11-66-10c0 0-3 16 0 27c3 11 8 10 16 12c8 2 13 5 16 4c3-1 7-4 12-4c5 0 29 4 38 4c9 0 14-4 21-6z m235 79c15-2 34-19 21-33c-18-19-15-19-55-24c-35-4-61-4-68-4c-7 0-33 0-68 4c-40 5-37 5-55 24c-13 14 6 31 21 33c14 2 74 3 102 3c28 0 88-1 102-3z m134-89c3-11 0-27 0-27c-17-1-35 1-66 10c-31 9-48 26-48 26c0 0 4-1 11 1c7 2 12 6 21 6c9 0 33-4 38-4c5 0 9 3 12 4c3 1 8-2 16-4c8-2 13-1 16-12z"/>
    </symbol>

    <symbol id="icon-glass-wine" viewBox="0 0 512 512">
      <path d="m295 295c-11 4-24 8-24 32l0 94c0 11 4 19 12 25c3 2 7 4 15 6c32 9 48 16 50 18c2 1 4 3 4 7c0 0-14 3-96 3c-82 0-96-3-96-3c0-4 2-6 4-7c2-2 18-9 50-18c8-2 11-4 14-6c8-6 11-14 11-25l0-94c0-24-11-28-22-32c-11-4-18-6-26-11c-12-7-23-16-32-26c-20-23-31-52-31-87c0-50 4-100 8-114c4-14 14-25 31-25l178 0c17 0 27 11 31 25c4 14 8 65 8 115c0 35-11 63-31 86c-9 10-20 19-32 26c-8 5-15 7-26 11z m-39-25c26 0 50-11 67-28l6-6c16-18 22-35 23-65c1-30-2-83-8-107l-177 0c-7 35-8 80-7 108c1 28 7 46 23 64c2 3 4 6 7 8c17 16 41 26 66 26z m80-99c0 10-1 20-4 29c-3 9-8 18-15 25l-5 5c-14 14-34 23-56 23c-21 0-41-8-55-22l-6-6c-7-7-12-16-15-25c-3-9-3-15-4-29c-1-9 0-34 1-53c1-10 2-19 3-22l153 0c1 6 2 14 2 22c1 21 1 45 1 53z m-16 8l0-26c0-4-4-8-8-8c-4 0-8 4-8 8l0 26c0 3 1 6 3 7c1 1 3 1 5 1c4 0 8-3 8-8z m-1-47c1-2 1-4 1-6c0-2-2-4-4-5c-2-1-4-1-6-1c-2 0-4 1-5 3c-1 2-1 4-1 6c0 2 2 4 4 5c2 1 4 1 6 1c2 0 4-1 5-3z"/>
    </symbol>

    <symbol id="icon-fork" viewBox="0 0 512 512">
      <path d="m270 149z m50 17c0 26-15 48-37 58c-12 6-11 11-11 11c0 0 16 200 16 213c0 13-3 18-9 24c-6 6-15 8-23 8c-8 0-16-2-22-8c-6-6-10-13-10-24c0-11 16-213 16-213c0 0 0-6-11-11c-22-10-37-32-37-58c0-43 15-93 24-134l8 0l0 117c0 6 3 11 9 11c6 0 9-4 10-10l0-1l9-117l8 0l10 117l0 1c1 6 3 10 9 10c6 0 9-5 9-11l0-117l8 0c9 40 24 91 24 134z"/>
    </symbol>

    <symbol id="icon-globe-outline" viewBox="0 0 512 512">
      <path d="m256 48c115 0 208 93 208 208c0 115-93 208-208 208c-115 0-208-93-208-208c0-115 93-208 208-208z m8 124l0 76l75 0c-1-31-5-60-11-84c-21 5-42 7-64 8z m0-16c20-1 41-3 60-8c-14-46-38-76-60-82z m-16-90c-23 6-45 36-60 82c19 5 39 7 60 8z m0 106c-22-1-44-3-65-8c-6 24-10 53-11 84l76 0z m-92 76c1-32 4-62 11-88c-21-6-41-15-59-25c-26 31-41 70-43 113z m0 16l-91 0c2 43 17 82 43 113c19-10 38-19 59-25c-7-26-10-56-11-88z m16 0c1 31 5 60 11 84c21-5 43-8 65-9l0-75z m76 92c-21 1-41 3-60 8c15 46 37 76 60 82z m16 90c22-6 46-36 60-82c-19-5-40-7-60-8z m0-107c22 1 43 4 64 9c6-24 10-53 11-84l-75 0z m92-75c-1 32-5 62-12 88c21 6 41 15 60 25c26-31 41-70 43-113z m0-16l91 0c-2-43-17-82-43-113c-19 10-38 19-59 25c7 26 10 56 11 88z m36-126c-25-25-56-44-91-52c16 17 29 43 39 74c18-6 35-13 52-22z m-181-52c-35 8-67 27-91 52c16 9 34 15 52 21c10-31 23-56 39-73z m-91 320c25 25 56 44 91 52c-16-17-30-43-40-74c-18 6-35 13-51 22z m181 52c35-8 66-27 91-52c-17-9-34-16-52-22c-10 31-23 57-39 74z"/>
    </symbol>

    <symbol id="icon-globe-world" viewBox="0 0 512 512">
      <path d="m340 127c-1 0 0 1-1 1c-1 0-4-4-3-5l2-2l2-1l1-1l0-1c0-1-1-2-1-3l0-2c1-1 2-1 3-1l1 1l2 1l1 2c0 1 1 1 2 1c2 1 4 2 5 3c3 3 5 7 6 11l0 2c-2 1-3 3-5 4c-1 1-2 1-3 1c-2 0-4-1-5-2c-1-1-1-2-1-3c0-2-1-4-1-6c0-1-1-1-1-1l-2 0c0 0-1 1-2 1z m-55-30l-1-1c0-1 0-4 1-4l1 0c4-1 6-3 10-4l1 0c1 0 2 1 3 2c2 2 2 3 0 5l-1 2c0 1-1 2-1 3l0 1l-1 0c-3 0-6-1-8-2c-2 0-3-1-4-2z m-119 81l-5 0c-5 0-10-1-14-2l-3 0c0-1-1-1-2-1l0-1c-1 0 1-2 2-3c1 0 1-1 2-1c1 0 2-1 3-1c1 0 2 0 3 1l2 2c2 1 4 2 6 2l5 0c1 0 1 1 2 1l1 0l1 1c0 1 0 2-1 2z m10 7c0 0 1 1 2 1c1 0 1 1 1 1l0 4l-2 0c-2-1-5-2-7-2l-8 0l0-1c1 0 1-1 2-1l8-4l1 1c1 1 2 0 3 1z m80-153c124 0 224 100 224 224c0 124-100 224-224 224c-124 0-224-100-224-224c0-124 100-224 224-224z m-136 360c11 11 24 20 37 28c-1-1-3-2-4-3l-7-7c-3-4-4-9-6-13l0-1c0-2-1-4-1-6c0-3-2-7-2-10l0-1c-1-1-1-2-1-3c0-1-1-3-1-4c0-3 1-5 1-8l0-3c0-3 1-5 1-8l0-2c-1-1-1-3-1-4l0-5c0 0 0-5 1-7c0-1 1-1 1-2l0-5c0-3 2-7 2-10l0-1c-2-1-2-2-3-3c-2-2-2-4-2-7c0-2 0-4 1-6l0-1l-1 0c-4-3-8-6-11-10c-1-2-2-4-4-6l-3-3c0 0-2-3-2-4c-1-2-1-4-1-6l0-2c-1-2-1-4-1-6l0-8c0 0 1-4 2-6c0-1 1-1 2-2c2-2 3-5 5-7l3-6c1-1 2-2 2-4c1-2 1-4 1-6l0-3c0-2-1-3-3-4l-1-1c-2-1-4-3-6-4l0-1c-1-4-2-5-3-9c0-1-1-3-1-3c-2-1-3-3-5-4l0-5c-2 0 1-3 1-4l-1 0c-3-1-6-3-9-5c-2-1-3-2-4-4c-1-1-2-3-3-4c-1-2-1-3-1-5c0-3 2-7 2-10l0-2l-1 0l0-1c-19 30-29 65-29 101c0 51 20 100 56 136z m315-195c0 0 0 1 1 1l0-1c0-2 0-5-1-7c-1-2-2-3-3-4c0 0-10 6-27-14c-17-20-24-16-24-16c0 0-2 2-2 1l-1 0l0 2c0 1-1 2-1 4c0 2-1 6-1 8l0 1l-1 0c-3 1-6 1-9 2c-2 0-4 1-6 0c-2-1-3-2-4-3c-2-2-3-3-4-5c-2-3-4-7-6-10l0-1c2-1 3-2 4-3l1 0c1 0 3-1 4-1c2 0 3-1 5-1l3 0c2-2 5-2 7-4l0-1c2-2 3-4 5-6l1-1l-1-1l-2-4l0-2c0-2 1-3 1-5l0-2c-3 0-6-1-9-1c-1-2-3-5-4-7l-1 0c-2 0-3-1-5-1l-1 0c-1-1-2-2-2-3c-1-2-2-3-2-5c-1-4 0-8 0-12c3 0 7-1 10-1c-18-11-38-20-58-25l0 1c-2 4-4 6-6 10c-1 1-1 2-2 2c-2 0-4 1-6 1c-2 0-2 0-3 1l0 1c-2 2-4 5-6 7c-3 3-6 6-9 10l0 1l-1 0l0-1c-2-1-4-2-5-4c-2-2-3-4-4-6c-2-4-3-8-3-12c0-1 1-1 1-1c1-3 2-7 3-10c0-1 1-1 1-2l0-3l-9 0l4 8l0 1l-1 0c-2 1-3 3-5 4l-6 6c0-1-1-1-2-2c-1-1-3-2-5-3l0-1l-6 0l-2 1c-1 0-1 1-2 1l-3 0c-2 0-2 0-3-2c0-1-1-1-2-1l-1 0l-2 1l-3 3c0 0-2 1-3 2l-1 1l-6 3l0 1c0 1-1 1-1 2l0 6c0 1 1 2 1 3c1 2 1 2 3 2l2 0c1-1 3-1 4-2c2-1 3-2 4-3c1-1 3-2 3-4l0-1c0-1 1 0 2 0l2 0c1 1 3 1 4 0c1 0 1 0 2-1l2-2c0 0 3-2 4-2c2 0 3-1 4 1l0 1l2 2c1 0 1 2 2 2l2 1c1 1 1 1 1 2c0 1-1 1-1 2c0 1-1 2-2 3c0 1-1 2-1 3l-1 1c0 1 0 1 1 1l1 0c1 0 2-1 3-1l0 1c0 2-1 4-1 6c0 2-1 3-2 5c0 1 0 1-1 2c-1 1-3 2-5 2c-1 0-2-1-3-1c-1 0-2-1-2-1c-1-1-1-1-2-1l-4 0c-1 0-1 1-1 2c0 1-2 1-2 2l-1 1l-1 0c-2 0-3 1-5 1l-9 0c-3 1-7 2-10 3c-1 0-1 1-1 1c-1 1-2 1-3 1c-1 1-3 2-4 2l-5 0l-1-1c-5 6-18 6-22 12l0 1c0 2-1 3-1 5c0 4 0 8-1 12c0 1-1 1-1 2l-1 1l-2 0l-1-1c0 0-1 0-1-1c0-1-1-2-1-3c-1-2-1-3-1-5c0-3-2-4-4-6c-1-1-2-2-3-2c-2-1-5-1-7-1c-1 0-1-1-2-1c-2 0-4 1-6 1c-8 2-13 8-18 14l0 1c-1 3-2 5-2 8c0 2 1 4 1 5c1 2 2 3 4 3l5 0c1 0 2-1 3-1l2 0c1 0 1 1 2 2c1 1 0 3 0 4c0 1-1 1-1 1c-1 1-1 2-2 3c-1 1-2 1-3 1c-1 0-1 2-1 3c0 1-1 1 0 2l1 1c0 0 1 1 2 1l0 15c0 3 2 5 5 7l1 1c2 1 3 3 5 3l5 0c2 0 3-1 5-3c1-1 1-2 2-3l1-1c1-1 3-2 4-2c1 0 2 0 3 1l2 2l2 1c3 1 5 3 8 4l1 1c2 0 3 0 5 1c4 2 7 4 10 8c0 0 1 1 2 1c7 2 14 7 19 12c3 3 5 7 7 11c0 1 1 3 1 4l1 1c2 2 3 3 4 5c1 2 3 5 4 7c1 0 3 1 4 1c5 1 10 3 14 6c4 2 5 4 8 7c1 1 2 1 2 3l0 5c-1 6-4 11-10 15c0 0-1 0-1 1c-2 5-4 11-6 16l-1 1c-3 4-5 7-8 11l-1 1c-1 0-1 2-2 2c-4 2-9 3-13 4c-1 0-1 1-1 1c-2 3-5 7-8 10c-1 1-2 3-3 4c-2 3-3 6-5 9c0 1-1 2-2 2c-4 3-9 6-13 9l-1 0l-7 7c0 0-1 1-1 2c-1 2-2 3-3 5c-1 2-1 4-2 6l-1 2c0 0 1 1 1 2c1 6 3 19 4 25l0 1c28 15 59 24 92 24c40 0 77-12 109-34c-1-1-1-2-1-3l0-2c0-2 1-3 2-5c2-3 2-7 4-10c1-3 4-6 5-9c0-1 1-3 1-4l0-2c0 0-1-3-1-4c0-2-1-5-1-7c-1-3-1-5 0-8l3-6c0 0 2-4 4-6l5-5c2-2 2-3 3-5c1-3 2-6 1-9c0-2-1-4-2-6c-1-2-2-3-2-5c-1-3-1-7 0-10c0-1 2-3 2-4c1-2 1-3 2-5c1-2 1-3 1-5c0-3 0-6-1-8l0-2c-1 0-1-1-2-1l-1 1l-2 0l-1 1c-1 0-1 0-2-1l-1 0c-1-1-1-2-2-2c-1 0-2-1-3-1c-2 0-5-1-7-1c-4 0-7 1-11 1c-3 0-7 0-10-1c-3-1-5-3-8-5c-4-2-7-4-10-7c-4-3-7-7-10-10l-1-1l0-1c0-2-1-4-1-6c0-4 1-7 2-11c1-5 1-10 3-15c1-2 1-3 1-5c0-2 1-3 1-5c0-1-1-2-1-3l0-3c0-1 1-1 1-2c3-6 8-10 15-12l1-1c2-3 5-6 7-9c0 0 1-1 2-1c4-1 7-2 11-3c3-1 5-2 8-2c3 0 6 1 8 1c3 0 6 1 8 2l10 0c2 0 3 1 5 2c1 0 1 1 2 1c1 0 1 1 2 1c5 4 9 7 14 11l11 0c2 0 4 1 6 1z"/>
    </symbol>

    <symbol id="icon-mark-map" viewBox="0 0 512 512">
      <path d="m256 64c66 0 120 54 120 120c0 115-120 264-120 264c0 0-119-149-119-264c0-66 53-120 119-120z m0 178c31 0 57-25 57-56c0-31-26-57-57-57c-31 0-56 26-56 57c0 31 25 56 56 56z"/>
    </symbol>

    <symbol id="icon-map" viewBox="0 0 512 512">
      <path d="m473 137c4 3 7 8 7 14l0 281c0 6-3 11-8 14c-2 1-5 2-7 2c-3 0-5 0-7-2l-97-66l-97 66c-5 3-11 3-16 0l-97-66l-97 66c-4 3-10 3-15 0c-5-3-7-8-7-14l0-281c0-6 3-11 7-14l105-71c5-3 10-3 15 0l97 66l97-66c5-3 10-3 15 0z m-338 216l0-241l-71 49l0 242z m32 0l73 49l0-131l-4 13c-7-2-14-6-21-10l9-13c6 4 10 6 16 8l0-109l-73-49l0 101c4 2 8 4 12 7l-9 13c-1-1-2-1-3-2z m105 49l73-49l0-109l-2 2c-2 2-3 4-5 6l-12-11c2-2 3-4 5-6c3-3 6-7 9-10l5 5l0-119l-73 49l0 112l6 0l3 15c-3 0-6 1-9 1z m176 0l0-242l-71-49l0 88c3-1 5-2 8-2l3 15c-4 1-7 2-11 4l0 137z m-349-146l0 1l-16-5l1-1c2-7 4-13 9-20l13 9c-4 5-5 10-7 16z m30-35c-3 1-11 5-14 7l-11-12c4-3 7-6 11-8c3-2 7-3 10-4l5 15c-2 1 1 1-1 2z m167 45c5-2 11-5 16-10l10 12c-6 6-12 9-19 12z m-98-28c4 4 6 7 10 11l-11 12c-4-4-7-9-11-13l-3-3l12-11c1 1 2 3 3 4z m210-8l-12-12l11-10l-11-10l12-12l10 11l10-11l12 12l-11 10l11 10l-12 12l-10-11z"/>
    </symbol>

    <symbol id="icon-mark-map-outline" viewBox="0 0 512 512">
      <path d="m256 32c74 0 134 59 134 133c0 17-3 34-9 50l-1 1c0 1-1 3-1 4l-1 1l-122 259l-122-260c0-1-2-3-2-4l0-1c-6-16-10-34-10-50c0-74 60-133 134-133z m109 177c6-14 9-29 9-44c0-65-53-117-118-117c-65 0-118 52-118 117c0 15 3 31 9 45c0 1 1 1 1 2l1 2l107 227l107-227l1-2c0-1 1-1 1-2z m-109-113c35 0 64 29 64 64c0 35-29 64-64 64c-35 0-64-29-64-64c0-35 29-64 64-64z m0 111c26 0 47-21 47-47c0-26-21-47-47-47c-26 0-47 21-47 47c0 26 21 47 47 47z"/>
    </symbol>

    <symbol id="icon-check-mark-circle-outline" viewBox="0 0 512 512">
      <path d="m340 177l18 18l-134 135c-2 2-6 4-9 4c-3 0-7-2-9-4l-56-56l18-18l47 47z m-84-129c115 0 208 93 208 208c0 115-93 208-208 208c-115 0-208-93-208-208c0-115 93-208 208-208z m0 399c105 0 191-86 191-191c0-105-86-191-191-191c-105 0-191 86-191 191c0 105 86 191 191 191z"/>
    </symbol>

    <symbol id="icon-close-circle-outline" viewBox="0 0 512 512">
      <path d="m403 109c81 81 81 213 0 294c-81 81-213 81-294 0c-81-81-81-213 0-294c81-81 213-81 294 0z m-12 282c74-74 74-196 0-270c-74-74-196-74-270 0c-74 74-74 196 0 270c74 74 196 74 270 0z m-51-231l12 12l-84 84l84 84l-12 12l-84-84l-84 84l-12-12l84-84l-84-84l12-12l84 84z"/>
    </symbol>

    <symbol id="icon-chevron-down" viewBox="0 0 512 512">
      <path d="m256 298l174-167c4-4 12-4 16 0l31 30c4 4 4 12 0 16l-213 204c-2 2-5 3-8 3c-3 0-6-1-8-3l-213-204c-4-4-4-12 0-16l31-30c4-4 12-4 16 0z"/>
    </symbol>

    <symbol id="icon-chevron-down-1" viewBox="0 0 512 512">
      <path d="m397 160l19 21l-160 171l-160-171l19-21l141 150z"/>
    </symbol>

    <symbol id="icon-chevron-left" viewBox="0 0 512 512">
      <path d="m214 256l167 174c4 4 4 12 0 16l-30 31c-4 4-12 4-16 0l-204-213c-2-2-3-5-3-8c0-3 1-6 3-8l204-213c4-4 12-3 16 1l30 30c4 4 4 12 0 16z"/>
    </symbol>

    <symbol id="icon-chevron-left-1" viewBox="0 0 512 512">
      <path d="m352 115l-150 141l150 141l-21 19l-171-160l171-160z"/>
    </symbol>

    <symbol id="icon-chevron-left-thick" viewBox="0 0 512 512">
      <path d="m352 128l-127 128l127 128l-32 32l-160-160l160-160z"/>
    </symbol>

    <symbol id="icon-chevron-right" viewBox="0 0 512 512">
      <path d="m298 256l-167-174c-4-4-4-12 0-16l30-30c4-4 12-5 16-1l204 213c2 2 3 5 3 8c0 3-1 6-3 8l-204 213c-4 4-12 4-16 0l-30-31c-4-4-4-12 0-16z"/>
    </symbol>

    <symbol id="icon-chevron-right-1" viewBox="0 0 512 512">
      <path d="m160 115l21-19l171 160l-171 160l-21-19l150-141z"/>
    </symbol>

    <symbol id="icon-chevron-right-thick" viewBox="0 0 512 512">
      <path d="m160 128l32-32l160 160l-160 160l-32-32l127-128z"/>
    </symbol>

    <symbol id="icon-chevron-up" viewBox="0 0 512 512">
      <path d="m397 352l-141-150l-141 150l-19-21l160-171l160 171z"/>
    </symbol>

    <symbol id="icon-chevron-up-1" viewBox="0 0 512 512">
      <path d="m256 214l-174 167c-4 4-12 4-16 0l-31-30c-4-4-4-12 0-16l213-204c2-2 5-3 8-3c3 0 6 1 8 3l213 204c4 4 4 12 0 16l-31 30c-4 4-12 4-16 0z"/>
    </symbol>

    <symbol id="icon-circle-filled" viewBox="0 0 512 512">
      <path d="m256 48c115 0 208 93 208 208c0 115-93 208-208 208c-115 0-208-93-208-208c0-115 93-208 208-208z m0 399c105 0 191-86 191-191c0-105-86-191-191-191c-105 0-191 86-191 191c0 105 86 191 191 191z m0-351c88 0 160 72 160 160c0 88-72 160-160 160c-88 0-160-72-160-160c0-88 72-160 160-160z"/>
    </symbol>

    <symbol id="icon-circle-filled-outline" viewBox="0 0 512 512">
      <path d="m256 48c115 0 208 93 208 208c0 115-93 208-208 208c-115 0-208-93-208-208c0-115 93-208 208-208z m0 399c105 0 191-86 191-191c0-105-86-191-191-191c-105 0-191 86-191 191c0 105 86 191 191 191z"/>
    </symbol>

    <symbol id="icon-close-circle" viewBox="0 0 512 512">
      <path d="m403 109c81 81 81 213 0 294c-81 81-213 81-294 0c-81-81-81-213 0-294c81-81 213-81 294 0z m-51 231l-84-84l84-84l-12-12l-84 84l-84-84l-12 12l84 84l-84 84l12 12l84-84l84 84z"/>
    </symbol>

    <symbol id="icon-check-mark-circle" viewBox="0 0 512 512">
      <path d="m256 48c115 0 208 93 208 208c0 115-93 208-208 208c-115 0-208-93-208-208c0-115 93-208 208-208z m-32 282l134-135l-18-18l-125 126l-47-47l-18 18l56 56c2 2 6 4 9 4c3 0 7-2 9-4z"/>
    </symbol>

    <symbol id="icon-camera-3" viewBox="0 0 512 512">
      <path d="m430 147c18 0 34 14 34 33l0 202c0 19-16 34-34 34l-348 0c-19 0-34-15-34-34l0-202c0-19 15-33 34-33l69 0l39-40c6-7 15-11 25-11l84 0c9 0 17 4 23 10l41 41z m-174 219c51 0 92-42 92-93c0-51-41-93-92-93c-51 0-92 42-92 93c0 51 41 93 92 93z m168-166c8 0 14-6 14-14c0-8-6-14-14-14c-8 0-14 6-14 14c0 8 6 14 14 14z m-168 3c38 0 70 31 70 70c0 39-32 70-70 70c-39 0-70-31-70-70c0-39 31-70 70-70z"/>
    </symbol>

    <symbol id="icon-call-phone" viewBox="0 0 512 512">
      <path d="m416 336c16 16 26 35 0 66c-25 30-42 30-64 30c-24 0-58-14-93-40c-32-23-46-34-78-67c-34-35-55-64-79-107c-27-50-24-74-18-92c4-12 14-24 28-33l1-1c6-4 18-12 32-12c13 0 24 6 34 18l1 1c11 14 24 31 32 47c10 21 10 38-1 53c-9 12-12 19-12 23c0 4 5 9 13 18l1 1c16 18 20 23 26 29c1 1 3 2 4 3l2 2c7 7 11 12 29 28l1 1c7 6 9 8 12 8c5 0 16-7 29-15c4-3 11-5 17-5c27 0 68 29 83 44z"/>
    </symbol>

    <symbol id="icon-compose" viewBox="0 0 512 512">
      <path d="m443 100c7 7 7 18 0 25l-32 31l-55-55l31-32c7-7 18-7 25 0z m-97 10l55 55l-177 173l-64 14l14-64z m38 146l32-32l0 201c0 13-10 23-23 23l-306 0c-13 0-23-10-23-23l0-306c0-13 10-23 23-23l201 0l-32 32l-149 0c-6 0-11 5-11 10l0 268c0 0 4 10 10 10l269 0c0 0 9-5 9-10z"/>
    </symbol>

    <symbol id="icon-compose-edit-outline" viewBox="0 0 512 512">
      <path d="m360 400l0-192l16-16l0 224l-304 0l0-288l240 0l-16 16l-208 0l0 256z m-130-116l171-171l11 11l-180 180l-32 0l0-32l180-180l11 11l-171 171z m206-204c2 3 4 6 4 10c0 4-2 7-4 10l-12 12l-32-32l12-12c3-2 6-4 10-4c4 0 7 2 10 4z"/>
    </symbol>

    <symbol id="icon-clock-outline" viewBox="0 0 512 512">
      <path d="m256 32c124 0 224 100 224 224c0 124-100 224-224 224c-124 0-224-100-224-224c0-124 100-224 224-224z m136 360c36-36 56-85 56-136c0-51-20-100-56-136c-36-36-85-56-136-56c-51 0-100 20-136 56c-36 36-56 85-56 136c0 51 20 100 56 136c36 36 85 56 136 56c51 0 100-20 136-56z m-168-120l16-176l24 0l8 160l80 96l-16 16z"/>
    </symbol>

    <symbol id="icon-data" viewBox="0 0 512 512">
      <path d="m256 32c124 0 224 100 224 224c0 124-100 224-224 224c-124 0-224-100-224-224c0-124 100-224 224-224z m-136 360z m152 55c40-3 77-18 108-44l-124-147l0-144l-16-47c-40 3-77 18-108 44l28 39l-11 12l-39-28c-26 31-42 68-45 108l47 8l0 16l-47 8c3 40 18 77 44 108l39-28l12 11l-28 39c31 26 68 42 108 45l8-47l16 0z"/>
    </symbol>

    <symbol id="icon-music-song" viewBox="0 0 512 512">
      <path d="m426 32c12 0 22 9 22 21l0 303c0 0-3 43-12 55c-9 15-25 21-43 21l-37 0c-28 0-52-20-52-48c0-28 24-48 52-48l60 0l0-192l-208 38l0 232c0 8-3 27-13 41c-1 2-2 3-3 5c0 1-1 1-2 2c-9 11-23 18-38 18l-37 0c-28 0-51-20-51-48c0-28 23-48 51-48l61 0l0-286c1-14 13-28 27-32l218-33c0 0 3-1 5-1z"/>
    </symbol>

    <symbol id="icon-navicon-round" viewBox="0 0 512 512">
      <path d="m417 224c17 0 31 14 31 32c0 18-14 32-31 32l-322 0c-17 0-31-14-31-32c0-18 14-32 31-32z m0-128c17 0 31 14 31 32c0 18-14 32-31 32l-322 0c-17 0-31-14-31-32c0-18 14-32 31-32z m0 256c17 0 31 14 31 32c0 18-14 32-31 32l-322 0c-17 0-31-14-31-32c0-18 14-32 31-32z"/>
    </symbol>

</svg>
